<?xml version="1.0" encoding="utf-8"?>
<!-- Generator: Adobe Illustrator 15.1.0, SVG Export Plug-In . SVG Version: 6.00 Build 0)  -->
<!DOCTYPE svg PUBLIC "-//W3C//DTD SVG 1.1//EN" "http://www.w3.org/Graphics/SVG/1.1/DTD/svg11.dtd">
<svg version="1.1" id="Layer_2" xmlns="http://www.w3.org/2000/svg" xmlns:xlink="http://www.w3.org/1999/xlink" x="0px" y="0px"
	 width="512px" height="512px" viewBox="0 0 512 512" enable-background="new 0 0 512 512" xml:space="preserve">
<rect fill="#F8DB94" width="512" height="512"/>
<g id="Layer_1">
	<g>
		
			<rect x="170.642" y="291.809" transform="matrix(-0.8585 -0.5128 0.5128 -0.8585 155.0281 790.0207)" fill="#6D6E71" width="31.729" height="163.626"/>
	</g>
	
		<rect x="107.547" y="332.825" transform="matrix(-0.8585 -0.5128 0.5128 -0.8585 54.5993 863.88)" display="none" fill="#BB9753" width="77.875" height="183.165"/>
	<circle fill="#F5F6F7" cx="292.525" cy="186.898" r="139.89"/>
	<circle fill="#00AEEF" cx="292.524" cy="186.898" r="123.796"/>
	<circle fill="#FFFFFF" cx="317.697" cy="148.521" r="65.613"/>
	<circle fill="#00AEEF" cx="306.142" cy="160.076" r="74.278"/>
	
		<rect x="145.459" y="342.295" transform="matrix(-0.8585 -0.5128 0.5128 -0.8585 109.7824 832.0923)" fill="#8B5E3C" stroke="#FFFFFF" stroke-width="2" stroke-linecap="round" stroke-linejoin="round" stroke-miterlimit="10" width="48.436" height="117.214"/>
	
		<rect x="134.553" y="417.613" transform="matrix(-0.8585 -0.5128 0.5128 -0.8585 77.4375 862.9082)" width="46.41" height="6.316"/>
	
		<rect x="128.518" y="427.838" transform="matrix(-0.8585 -0.5128 0.5128 -0.8585 60.9552 878.8093)" width="46.377" height="6.317"/>
	
		<rect x="122.321" y="438.218" transform="matrix(-0.8585 -0.5127 0.5127 -0.8585 44.1046 894.9205)" width="46.354" height="6.317"/>
</g>
</svg>
